<?xml version="1.0" encoding="UTF-8"?>
<svg width="1572px" height="571px" viewBox="0 0 1572 571" version="1.1" xmlns="http://www.w3.org/2000/svg" xmlns:xlink="http://www.w3.org/1999/xlink">
    <title>Group</title>
    <g id="Web-1-(Updated)" stroke="none" stroke-width="1" fill="none" fill-rule="evenodd">
        <g id="Desktop-HD" transform="translate(32.000000, -4807.000000)" stroke="#386EEA" stroke-width="6">
            <g id="Group" transform="translate(-29.442982, 4810.931309)">
                <path d="M799,413.12598 C768.572893,413.12598 734.892085,432.05303 704.980626,443.937 C685.796735,451.558853 663.404074,455.511074 644.796572,467.238117 C621.676449,481.809158 536.92508,558.238296 489.364382,561.690453 C466.277513,563.366197 443.118194,563.862657 420.046945,561.599699 C414.491774,561.054817 409.188652,556.958598 404.009687,553.318387 C384.918365,539.899406 366.494419,523.524822 347.321908,510.482449 C337.385198,503.72286 326.804857,500.381111 316.792846,493.98789 C309.235856,489.162334 302.263656,481.674942 294.700447,476.88074 C269.584394,460.960063 241.71127,452.937273 215.464232,450.108279 C135.867714,441.529098 70.6795531,427.12936 0,502.76835" id="Path-9" stroke-dasharray="27"></path>
                <g id="Path-3-Copy" transform="translate(798.878440, 0.000000)" stroke-dasharray="26">
                    <path d="M769,26.8506421 C743.665052,18.7541423 718.893518,7.81300732 692.995155,2.56114263 C632.938689,-9.61755909 562.480438,23.0555354 519.817449,70.4930252 C472.843059,122.724415 443.157886,202.363353 470.324098,275.739296 C472.962781,282.866378 482.572024,300.886692 489.86456,306.730898 C513.983116,326.059405 538.308407,293.452942 534.847819,265.337543 C529.912059,225.237164 470.706679,212.321748 452.744546,246.738083 C441.086224,269.076006 433.922996,294.165458 423.125011,317.065181 C415.534946,333.161739 409.991769,351.937007 397.662604,363.552584 C384.514247,375.939939 366.561435,379.585703 350.375276,385.604301 C328.553258,393.718514 306.23096,400.03701 283.861232,405.86804 C275.690634,407.997839 267.27245,408.702573 258.918465,409.443995 C238.15955,411.286361 217.376285,413.031421 196.561549,413.615941 C139.54138,415.217182 82.4996618,416.0097 25.4624074,416 C16.9459022,416 8.48746914,414.388107 0,413.582206"></path>
                </g>
            </g>
        </g>
    </g>
</svg>