<?xml version="1.0" encoding="UTF-8"?>
<svg width="768px" height="496px" viewBox="0 0 768 496" version="1.1" xmlns="http://www.w3.org/2000/svg" xmlns:xlink="http://www.w3.org/1999/xlink">
    <title>Path 3 Copy</title>
    <g id="Web-1-(Updated)" stroke="none" stroke-width="1" fill="none" fill-rule="evenodd" stroke-dasharray="26">
        <g id="Tablet" transform="translate(0.000000, -3817.000000)" stroke="#3762C5" stroke-width="6">
            <path d="M890.001015,3833.71888 C870.497388,3827.47135 851.427494,3819.02879 831.490133,3814.97627 C785.256807,3805.57876 731.015864,3830.79045 698.172575,3867.39486 C662.010236,3907.69841 639.157671,3969.15057 660.071062,4025.76999 C662.102402,4031.26949 669.499894,4045.17459 675.113914,4049.68418 C693.681125,4064.59872 712.407487,4039.43845 709.743419,4017.74363 C705.943718,3986.80079 660.365584,3976.83481 646.537779,4003.39165 C637.562841,4020.62836 632.048367,4039.98825 623.735744,4057.65847 C617.892677,4070.07913 613.625368,4084.56678 604.133995,4093.52976 C594.011983,4103.08827 580.191352,4105.90147 567.730746,4110.54563 C550.931481,4116.80683 533.747085,4121.6824 516.526177,4126.18183 C510.236197,4127.82526 503.755619,4128.36905 497.324463,4128.94116 C481.343607,4130.36279 306.671381,4227.97415 164,4281.61623 C-1.56239408,4343.86495 -61.0155916,4282.23809 -67.549508,4281.61623 L-102,4229" id="Path-3-Copy"></path>
        </g>
    </g>
</svg>